<svg width="802" height="136" viewBox="0 0 802 136" fill="none" xmlns="http://www.w3.org/2000/svg">
<path d="M298.994 77V67.419H306.9V39.681H298.994V30.1H326.263V39.681H318.29V67.419H326.263V77H298.994ZM337.096 77V30.1H369.792V39.815H348.151V67.285H370.462V77H337.096ZM342.456 57.771V48.525H366.777V57.771H342.456ZM395.824 77.67C392.742 77.67 389.95 77.3127 387.449 76.598C384.992 75.8387 382.803 74.7667 380.883 73.382C378.962 71.9527 377.242 70.2777 375.724 68.357L382.625 60.518C384.858 63.5107 387.091 65.5207 389.325 66.548C391.603 67.5753 393.948 68.089 396.36 68.089C397.566 68.089 398.66 67.9327 399.643 67.62C400.625 67.3073 401.385 66.8607 401.921 66.28C402.457 65.6547 402.725 64.8953 402.725 64.002C402.725 63.332 402.546 62.729 402.189 62.193C401.876 61.657 401.429 61.188 400.849 60.786C400.268 60.384 399.576 60.0267 398.772 59.714C397.968 59.3567 397.119 59.0663 396.226 58.843C395.332 58.575 394.417 58.3517 393.479 58.173C390.888 57.5923 388.632 56.8777 386.712 56.029C384.791 55.1803 383.183 54.153 381.888 52.947C380.637 51.6963 379.699 50.2893 379.074 48.726C378.448 47.118 378.136 45.3313 378.136 43.366C378.136 41.2667 378.605 39.346 379.543 37.604C380.525 35.8173 381.821 34.2987 383.429 33.048C385.081 31.7527 386.98 30.77 389.124 30.1C391.268 29.3853 393.501 29.028 395.824 29.028C398.906 29.028 401.541 29.363 403.73 30.033C405.963 30.6583 407.861 31.574 409.425 32.78C411.033 33.986 412.395 35.4377 413.512 37.135L406.477 43.902C405.539 42.7407 404.511 41.7803 403.395 41.021C402.323 40.2617 401.161 39.681 399.911 39.279C398.705 38.877 397.454 38.676 396.159 38.676C394.819 38.676 393.657 38.8547 392.675 39.212C391.737 39.5247 391 39.9937 390.464 40.619C389.928 41.1997 389.66 41.9143 389.66 42.763C389.66 43.5223 389.883 44.17 390.33 44.706C390.776 45.242 391.379 45.7333 392.139 46.18C392.898 46.582 393.769 46.9393 394.752 47.252C395.734 47.52 396.762 47.7433 397.834 47.922C400.29 48.4133 402.501 49.061 404.467 49.865C406.477 50.669 408.196 51.6517 409.626 52.813C411.1 53.9743 412.216 55.359 412.976 56.967C413.78 58.5303 414.182 60.3617 414.182 62.461C414.182 65.7217 413.378 68.491 411.77 70.769C410.206 73.0023 408.04 74.722 405.271 75.928C402.546 77.0893 399.397 77.67 395.824 77.67ZM444.049 77.67C440.521 77.67 437.26 77.0893 434.267 75.928C431.319 74.722 428.751 73.047 426.562 70.903C424.374 68.7143 422.676 66.146 421.47 63.198C420.309 60.2053 419.728 56.9223 419.728 53.349C419.728 49.865 420.354 46.649 421.604 43.701C422.855 40.753 424.575 38.207 426.763 36.063C428.997 33.8743 431.61 32.177 434.602 30.971C437.64 29.765 440.945 29.162 444.518 29.162C446.752 29.162 448.94 29.4523 451.084 30.033C453.228 30.6137 455.216 31.4847 457.047 32.646C458.923 33.7627 460.531 35.1027 461.871 36.666L454.903 44.639C453.965 43.6563 452.96 42.8077 451.888 42.093C450.861 41.3337 449.722 40.753 448.471 40.351C447.221 39.949 445.881 39.748 444.451 39.748C442.665 39.748 440.967 40.083 439.359 40.753C437.796 41.3783 436.411 42.294 435.205 43.5C434.044 44.6613 433.128 46.0907 432.458 47.788C431.788 49.4853 431.453 51.3837 431.453 53.483C431.453 55.5377 431.788 57.4137 432.458 59.111C433.128 60.7637 434.066 62.193 435.272 63.399C436.478 64.605 437.93 65.5207 439.627 66.146C441.369 66.7713 443.29 67.084 445.389 67.084C446.819 67.084 448.181 66.883 449.476 66.481C450.772 66.079 451.955 65.543 453.027 64.873C454.144 64.1583 455.127 63.3543 455.975 62.461L461.469 71.171C460.353 72.4217 458.856 73.5383 456.98 74.521C455.149 75.5037 453.094 76.2853 450.816 76.866C448.583 77.402 446.327 77.67 444.049 77.67ZM469.264 77V30.1H489.498C492.446 30.1 495.059 30.77 497.337 32.11C499.66 33.45 501.491 35.2813 502.831 37.604C504.216 39.9267 504.908 42.5397 504.908 45.443C504.908 48.4803 504.216 51.205 502.831 53.617C501.491 55.9843 499.66 57.8603 497.337 59.245C495.059 60.6297 492.446 61.322 489.498 61.322H480.654V77H469.264ZM480.453 51.339H487.89C488.873 51.339 489.766 51.0933 490.57 50.602C491.374 50.1107 492.022 49.4407 492.513 48.592C493.004 47.7433 493.25 46.7607 493.25 45.644C493.25 44.4827 493.004 43.5 492.513 42.696C492.022 41.892 491.374 41.2667 490.57 40.82C489.766 40.3733 488.873 40.15 487.89 40.15H480.453V51.339Z" fill="#212D9A"/>
<path d="M43.1622 111.301V108.155H45.7582V99.047H43.1622V95.901H52.1162V99.047H49.4982V108.155H52.1162V111.301H43.1622ZM55.2993 111.301V99.619H58.6433L58.7533 101.995L58.0493 102.259C58.2106 101.731 58.4966 101.254 58.9073 100.829C59.3326 100.389 59.8386 100.037 60.4253 99.773C61.012 99.509 61.628 99.377 62.2733 99.377C63.1533 99.377 63.894 99.5603 64.4953 99.927C65.0966 100.279 65.5513 100.814 65.8593 101.533C66.1673 102.237 66.3213 103.102 66.3213 104.129V111.301H62.7793V104.415C62.7793 103.946 62.7133 103.557 62.5813 103.249C62.4493 102.941 62.244 102.714 61.9653 102.567C61.7013 102.406 61.3713 102.332 60.9753 102.347C60.6673 102.347 60.3813 102.398 60.1173 102.501C59.8533 102.589 59.626 102.728 59.4353 102.919C59.2446 103.095 59.0906 103.3 58.9733 103.535C58.8706 103.77 58.8193 104.026 58.8193 104.305V111.301H57.0813C56.6706 111.301 56.3186 111.301 56.0253 111.301C55.732 111.301 55.49 111.301 55.2993 111.301ZM69.9901 111.301V99.047C69.9901 98.2843 70.1515 97.595 70.4741 96.979C70.8115 96.363 71.2735 95.879 71.8601 95.527C72.4615 95.1603 73.1581 94.977 73.9501 94.977C74.5075 94.977 75.0208 95.0577 75.4901 95.219C75.9595 95.3803 76.3775 95.6077 76.7441 95.901L75.7321 98.475C75.5415 98.3723 75.3581 98.2917 75.1821 98.233C75.0061 98.1743 74.8448 98.145 74.6981 98.145C74.4341 98.145 74.2141 98.189 74.0381 98.277C73.8621 98.365 73.7301 98.5043 73.6421 98.695C73.5688 98.871 73.5321 99.091 73.5321 99.355V111.301H71.7721C71.3761 111.301 71.0241 111.301 70.7161 111.301C70.4228 111.301 70.1808 111.301 69.9901 111.301ZM68.2961 102.853V99.949H75.9301V102.853H68.2961ZM77.9321 111.301V95.021H81.4521V111.301H77.9321ZM88.4786 111.543C87.6132 111.543 86.8726 111.36 86.2566 110.993C85.6552 110.612 85.1859 110.069 84.8486 109.365C84.5259 108.661 84.3646 107.818 84.3646 106.835V99.619H87.9066V106.351C87.9066 106.82 87.9799 107.224 88.1266 107.561C88.2732 107.898 88.4932 108.162 88.7866 108.353C89.0799 108.529 89.4319 108.617 89.8426 108.617C90.1506 108.617 90.4292 108.566 90.6786 108.463C90.9426 108.36 91.1626 108.221 91.3386 108.045C91.5292 107.854 91.6759 107.642 91.7786 107.407C91.8812 107.158 91.9326 106.886 91.9326 106.593V99.619H95.4746V111.301H92.1526L91.9986 108.903L92.6586 108.639C92.4826 109.196 92.1892 109.695 91.7786 110.135C91.3679 110.56 90.8766 110.905 90.3046 111.169C89.7326 111.418 89.1239 111.543 88.4786 111.543ZM104.178 111.521C102.887 111.521 101.765 111.264 100.812 110.751C99.8585 110.223 99.1178 109.512 98.5898 108.617C98.0618 107.708 97.7978 106.674 97.7978 105.515C97.7978 104.62 97.9445 103.799 98.2378 103.051C98.5311 102.303 98.9418 101.658 99.4698 101.115C99.9978 100.558 100.621 100.132 101.34 99.839C102.073 99.531 102.872 99.377 103.738 99.377C104.559 99.377 105.307 99.5237 105.982 99.817C106.671 100.11 107.265 100.521 107.764 101.049C108.262 101.577 108.644 102.2 108.908 102.919C109.172 103.638 109.289 104.422 109.26 105.273L109.238 106.219H99.9318L99.4258 104.239H106.378L106.004 104.657V104.217C105.974 103.85 105.857 103.528 105.652 103.249C105.461 102.956 105.204 102.728 104.882 102.567C104.559 102.406 104.192 102.325 103.782 102.325C103.21 102.325 102.718 102.442 102.308 102.677C101.912 102.897 101.611 103.227 101.406 103.667C101.2 104.092 101.098 104.62 101.098 105.251C101.098 105.896 101.23 106.461 101.494 106.945C101.772 107.414 102.168 107.781 102.682 108.045C103.21 108.309 103.833 108.441 104.552 108.441C105.05 108.441 105.49 108.368 105.872 108.221C106.268 108.074 106.693 107.825 107.148 107.473L108.798 109.805C108.343 110.201 107.859 110.524 107.346 110.773C106.832 111.022 106.304 111.206 105.762 111.323C105.234 111.455 104.706 111.521 104.178 111.521ZM111.502 111.301V99.619H114.846L114.956 101.995L114.252 102.259C114.414 101.731 114.7 101.254 115.11 100.829C115.536 100.389 116.042 100.037 116.628 99.773C117.215 99.509 117.831 99.377 118.476 99.377C119.356 99.377 120.097 99.5603 120.698 99.927C121.3 100.279 121.754 100.814 122.062 101.533C122.37 102.237 122.524 103.102 122.524 104.129V111.301H118.982V104.415C118.982 103.946 118.916 103.557 118.784 103.249C118.652 102.941 118.447 102.714 118.168 102.567C117.904 102.406 117.574 102.332 117.178 102.347C116.87 102.347 116.584 102.398 116.32 102.501C116.056 102.589 115.829 102.728 115.638 102.919C115.448 103.095 115.294 103.3 115.176 103.535C115.074 103.77 115.022 104.026 115.022 104.305V111.301H113.284C112.874 111.301 112.522 111.301 112.228 111.301C111.935 111.301 111.693 111.301 111.502 111.301ZM130.593 111.521C129.464 111.521 128.452 111.257 127.557 110.729C126.663 110.201 125.951 109.482 125.423 108.573C124.91 107.649 124.653 106.608 124.653 105.449C124.653 104.29 124.91 103.256 125.423 102.347C125.951 101.423 126.663 100.697 127.557 100.169C128.452 99.641 129.464 99.377 130.593 99.377C131.635 99.377 132.588 99.5603 133.453 99.927C134.333 100.294 135.03 100.807 135.543 101.467L133.629 103.755C133.424 103.52 133.182 103.3 132.903 103.095C132.625 102.89 132.317 102.728 131.979 102.611C131.642 102.494 131.29 102.435 130.923 102.435C130.366 102.435 129.875 102.567 129.449 102.831C129.024 103.08 128.694 103.432 128.459 103.887C128.225 104.342 128.107 104.862 128.107 105.449C128.107 106.006 128.225 106.512 128.459 106.967C128.709 107.422 129.046 107.781 129.471 108.045C129.897 108.309 130.381 108.441 130.923 108.441C131.305 108.441 131.657 108.397 131.979 108.309C132.302 108.206 132.595 108.06 132.859 107.869C133.138 107.678 133.395 107.444 133.629 107.165L135.521 109.475C135.023 110.106 134.326 110.604 133.431 110.971C132.551 111.338 131.605 111.521 130.593 111.521ZM143.022 111.521C141.731 111.521 140.609 111.264 139.656 110.751C138.702 110.223 137.962 109.512 137.434 108.617C136.906 107.708 136.642 106.674 136.642 105.515C136.642 104.62 136.788 103.799 137.082 103.051C137.375 102.303 137.786 101.658 138.314 101.115C138.842 100.558 139.465 100.132 140.184 99.839C140.917 99.531 141.716 99.377 142.582 99.377C143.403 99.377 144.151 99.5237 144.826 99.817C145.515 100.11 146.109 100.521 146.608 101.049C147.106 101.577 147.488 102.2 147.752 102.919C148.016 103.638 148.133 104.422 148.104 105.273L148.082 106.219H138.776L138.27 104.239H145.222L144.848 104.657V104.217C144.818 103.85 144.701 103.528 144.496 103.249C144.305 102.956 144.048 102.728 143.726 102.567C143.403 102.406 143.036 102.325 142.626 102.325C142.054 102.325 141.562 102.442 141.152 102.677C140.756 102.897 140.455 103.227 140.25 103.667C140.044 104.092 139.942 104.62 139.942 105.251C139.942 105.896 140.074 106.461 140.338 106.945C140.616 107.414 141.012 107.781 141.526 108.045C142.054 108.309 142.677 108.441 143.396 108.441C143.894 108.441 144.334 108.368 144.716 108.221C145.112 108.074 145.537 107.825 145.992 107.473L147.642 109.805C147.187 110.201 146.703 110.524 146.19 110.773C145.676 111.022 145.148 111.206 144.606 111.323C144.078 111.455 143.55 111.521 143.022 111.521ZM150.346 111.301V99.619H153.69L153.844 103.425L153.184 102.699C153.36 102.068 153.646 101.504 154.042 101.005C154.453 100.506 154.93 100.11 155.472 99.817C156.015 99.5237 156.594 99.377 157.21 99.377C157.474 99.377 157.716 99.399 157.936 99.443C158.171 99.487 158.384 99.5383 158.574 99.597L157.606 103.491C157.445 103.388 157.225 103.308 156.946 103.249C156.682 103.176 156.404 103.139 156.11 103.139C155.788 103.139 155.487 103.198 155.208 103.315C154.93 103.418 154.695 103.572 154.504 103.777C154.314 103.982 154.16 104.224 154.042 104.503C153.94 104.782 153.888 105.097 153.888 105.449V111.301H150.346ZM167.779 111.301V95.901H178.515V99.091H171.409V108.111H178.735V111.301H167.779ZM169.539 104.987V101.951H177.525V104.987H169.539ZM181.584 111.301V99.619H184.928L185.038 101.995L184.334 102.259C184.496 101.731 184.782 101.254 185.192 100.829C185.618 100.389 186.124 100.037 186.71 99.773C187.297 99.509 187.913 99.377 188.558 99.377C189.438 99.377 190.179 99.5603 190.78 99.927C191.382 100.279 191.836 100.814 192.144 101.533C192.452 102.237 192.606 103.102 192.606 104.129V111.301H189.064V104.415C189.064 103.946 188.998 103.557 188.866 103.249C188.734 102.941 188.529 102.714 188.25 102.567C187.986 102.406 187.656 102.332 187.26 102.347C186.952 102.347 186.666 102.398 186.402 102.501C186.138 102.589 185.911 102.728 185.72 102.919C185.53 103.095 185.376 103.3 185.258 103.535C185.156 103.77 185.104 104.026 185.104 104.305V111.301H183.366C182.956 111.301 182.604 111.301 182.31 111.301C182.017 111.301 181.775 111.301 181.584 111.301ZM200.895 116.361C199.942 116.361 198.989 116.222 198.035 115.943C197.097 115.664 196.334 115.305 195.747 114.865L196.979 112.401C197.287 112.606 197.625 112.782 197.991 112.929C198.373 113.09 198.769 113.215 199.179 113.303C199.59 113.391 200.008 113.435 200.433 113.435C201.181 113.435 201.79 113.325 202.259 113.105C202.729 112.885 203.081 112.548 203.315 112.093C203.55 111.653 203.667 111.096 203.667 110.421V108.463L204.349 108.573C204.247 109.057 203.99 109.497 203.579 109.893C203.183 110.289 202.692 110.612 202.105 110.861C201.519 111.096 200.895 111.213 200.235 111.213C199.179 111.213 198.233 110.971 197.397 110.487C196.576 109.988 195.923 109.306 195.439 108.441C194.97 107.561 194.735 106.549 194.735 105.405C194.735 104.232 194.97 103.198 195.439 102.303C195.909 101.394 196.554 100.682 197.375 100.169C198.197 99.641 199.121 99.377 200.147 99.377C200.587 99.377 201.005 99.4283 201.401 99.531C201.812 99.6337 202.186 99.773 202.523 99.949C202.875 100.11 203.183 100.308 203.447 100.543C203.726 100.763 203.946 101.005 204.107 101.269C204.283 101.533 204.401 101.804 204.459 102.083L203.733 102.259L203.865 99.619H207.209V110.355C207.209 111.308 207.063 112.152 206.769 112.885C206.491 113.633 206.073 114.264 205.515 114.777C204.973 115.305 204.313 115.701 203.535 115.965C202.758 116.229 201.878 116.361 200.895 116.361ZM200.983 108.485C201.555 108.485 202.047 108.36 202.457 108.111C202.883 107.847 203.205 107.488 203.425 107.033C203.66 106.578 203.777 106.043 203.777 105.427C203.777 104.811 203.66 104.276 203.425 103.821C203.205 103.352 202.883 102.992 202.457 102.743C202.047 102.479 201.555 102.347 200.983 102.347C200.426 102.347 199.942 102.479 199.531 102.743C199.121 102.992 198.798 103.352 198.563 103.821C198.343 104.276 198.233 104.811 198.233 105.427C198.233 106.043 198.343 106.578 198.563 107.033C198.798 107.488 199.121 107.847 199.531 108.111C199.942 108.36 200.426 108.485 200.983 108.485ZM214.578 111.499C213.595 111.499 212.715 111.242 211.938 110.729C211.175 110.201 210.567 109.482 210.112 108.573C209.657 107.649 209.43 106.608 209.43 105.449C209.43 104.261 209.657 103.212 210.112 102.303C210.567 101.394 211.19 100.682 211.982 100.169C212.774 99.641 213.676 99.377 214.688 99.377C215.245 99.377 215.751 99.4577 216.206 99.619C216.675 99.7803 217.086 100.008 217.438 100.301C217.79 100.58 218.091 100.91 218.34 101.291C218.589 101.658 218.773 102.054 218.89 102.479L218.164 102.391V99.619H221.662V111.301H218.098V108.485L218.89 108.463C218.773 108.874 218.582 109.262 218.318 109.629C218.054 109.996 217.731 110.318 217.35 110.597C216.969 110.876 216.543 111.096 216.074 111.257C215.605 111.418 215.106 111.499 214.578 111.499ZM215.546 108.529C216.089 108.529 216.558 108.404 216.954 108.155C217.35 107.906 217.658 107.554 217.878 107.099C218.098 106.63 218.208 106.08 218.208 105.449C218.208 104.818 218.098 104.276 217.878 103.821C217.658 103.352 217.35 102.992 216.954 102.743C216.558 102.479 216.089 102.347 215.546 102.347C215.018 102.347 214.556 102.479 214.16 102.743C213.779 102.992 213.478 103.352 213.258 103.821C213.038 104.276 212.928 104.818 212.928 105.449C212.928 106.08 213.038 106.63 213.258 107.099C213.478 107.554 213.779 107.906 214.16 108.155C214.556 108.404 215.018 108.529 215.546 108.529ZM230.114 116.361C229.161 116.361 228.207 116.222 227.254 115.943C226.315 115.664 225.553 115.305 224.966 114.865L226.198 112.401C226.506 112.606 226.843 112.782 227.21 112.929C227.591 113.09 227.987 113.215 228.398 113.303C228.809 113.391 229.227 113.435 229.652 113.435C230.4 113.435 231.009 113.325 231.478 113.105C231.947 112.885 232.299 112.548 232.534 112.093C232.769 111.653 232.886 111.096 232.886 110.421V108.463L233.568 108.573C233.465 109.057 233.209 109.497 232.798 109.893C232.402 110.289 231.911 110.612 231.324 110.861C230.737 111.096 230.114 111.213 229.454 111.213C228.398 111.213 227.452 110.971 226.616 110.487C225.795 109.988 225.142 109.306 224.658 108.441C224.189 107.561 223.954 106.549 223.954 105.405C223.954 104.232 224.189 103.198 224.658 102.303C225.127 101.394 225.773 100.682 226.594 100.169C227.415 99.641 228.339 99.377 229.366 99.377C229.806 99.377 230.224 99.4283 230.62 99.531C231.031 99.6337 231.405 99.773 231.742 99.949C232.094 100.11 232.402 100.308 232.666 100.543C232.945 100.763 233.165 101.005 233.326 101.269C233.502 101.533 233.619 101.804 233.678 102.083L232.952 102.259L233.084 99.619H236.428V110.355C236.428 111.308 236.281 112.152 235.988 112.885C235.709 113.633 235.291 114.264 234.734 114.777C234.191 115.305 233.531 115.701 232.754 115.965C231.977 116.229 231.097 116.361 230.114 116.361ZM230.202 108.485C230.774 108.485 231.265 108.36 231.676 108.111C232.101 107.847 232.424 107.488 232.644 107.033C232.879 106.578 232.996 106.043 232.996 105.427C232.996 104.811 232.879 104.276 232.644 103.821C232.424 103.352 232.101 102.992 231.676 102.743C231.265 102.479 230.774 102.347 230.202 102.347C229.645 102.347 229.161 102.479 228.75 102.743C228.339 102.992 228.017 103.352 227.782 103.821C227.562 104.276 227.452 104.811 227.452 105.427C227.452 106.043 227.562 106.578 227.782 107.033C228.017 107.488 228.339 107.847 228.75 108.111C229.161 108.36 229.645 108.485 230.202 108.485ZM245.051 111.521C243.76 111.521 242.638 111.264 241.685 110.751C240.732 110.223 239.991 109.512 239.463 108.617C238.935 107.708 238.671 106.674 238.671 105.515C238.671 104.62 238.818 103.799 239.111 103.051C239.404 102.303 239.815 101.658 240.343 101.115C240.871 100.558 241.494 100.132 242.213 99.839C242.946 99.531 243.746 99.377 244.611 99.377C245.432 99.377 246.18 99.5237 246.855 99.817C247.544 100.11 248.138 100.521 248.637 101.049C249.136 101.577 249.517 102.2 249.781 102.919C250.045 103.638 250.162 104.422 250.133 105.273L250.111 106.219H240.805L240.299 104.239H247.251L246.877 104.657V104.217C246.848 103.85 246.73 103.528 246.525 103.249C246.334 102.956 246.078 102.728 245.755 102.567C245.432 102.406 245.066 102.325 244.655 102.325C244.083 102.325 243.592 102.442 243.181 102.677C242.785 102.897 242.484 103.227 242.279 103.667C242.074 104.092 241.971 104.62 241.971 105.251C241.971 105.896 242.103 106.461 242.367 106.945C242.646 107.414 243.042 107.781 243.555 108.045C244.083 108.309 244.706 108.441 245.425 108.441C245.924 108.441 246.364 108.368 246.745 108.221C247.141 108.074 247.566 107.825 248.021 107.473L249.671 109.805C249.216 110.201 248.732 110.524 248.219 110.773C247.706 111.022 247.178 111.206 246.635 111.323C246.107 111.455 245.579 111.521 245.051 111.521ZM252.353 111.301V99.619H255.697L255.807 101.731L255.345 101.753C255.521 101.372 255.741 101.034 256.005 100.741C256.284 100.448 256.592 100.206 256.929 100.015C257.281 99.8097 257.641 99.6557 258.007 99.553C258.389 99.4503 258.77 99.399 259.151 99.399C259.723 99.399 260.244 99.487 260.713 99.663C261.183 99.839 261.593 100.125 261.945 100.521C262.297 100.902 262.576 101.423 262.781 102.083L262.231 102.039L262.407 101.687C262.598 101.335 262.84 101.02 263.133 100.741C263.441 100.448 263.779 100.206 264.145 100.015C264.512 99.8097 264.893 99.6557 265.289 99.553C265.685 99.4503 266.067 99.399 266.433 99.399C267.357 99.399 268.127 99.5823 268.743 99.949C269.359 100.301 269.821 100.836 270.129 101.555C270.452 102.274 270.613 103.146 270.613 104.173V111.301H267.071V104.459C267.071 103.99 267.005 103.601 266.873 103.293C266.741 102.985 266.543 102.758 266.279 102.611C266.03 102.45 265.715 102.369 265.333 102.369C265.025 102.369 264.739 102.42 264.475 102.523C264.226 102.626 264.006 102.765 263.815 102.941C263.639 103.117 263.5 103.322 263.397 103.557C263.295 103.792 263.243 104.056 263.243 104.349V111.301H259.701V104.437C259.701 103.997 259.635 103.623 259.503 103.315C259.371 103.007 259.173 102.772 258.909 102.611C258.645 102.45 258.337 102.369 257.985 102.369C257.677 102.369 257.391 102.42 257.127 102.523C256.878 102.626 256.658 102.765 256.467 102.941C256.291 103.117 256.152 103.322 256.049 103.557C255.947 103.792 255.895 104.048 255.895 104.327V111.301H252.353ZM279.104 111.521C277.813 111.521 276.691 111.264 275.738 110.751C274.784 110.223 274.044 109.512 273.516 108.617C272.988 107.708 272.724 106.674 272.724 105.515C272.724 104.62 272.87 103.799 273.164 103.051C273.457 102.303 273.868 101.658 274.396 101.115C274.924 100.558 275.547 100.132 276.266 99.839C276.999 99.531 277.798 99.377 278.664 99.377C279.485 99.377 280.233 99.5237 280.908 99.817C281.597 100.11 282.191 100.521 282.69 101.049C283.188 101.577 283.57 102.2 283.834 102.919C284.098 103.638 284.215 104.422 284.186 105.273L284.164 106.219H274.858L274.352 104.239H281.304L280.93 104.657V104.217C280.9 103.85 280.783 103.528 280.578 103.249C280.387 102.956 280.13 102.728 279.808 102.567C279.485 102.406 279.118 102.325 278.708 102.325C278.136 102.325 277.644 102.442 277.234 102.677C276.838 102.897 276.537 103.227 276.332 103.667C276.126 104.092 276.024 104.62 276.024 105.251C276.024 105.896 276.156 106.461 276.42 106.945C276.698 107.414 277.094 107.781 277.608 108.045C278.136 108.309 278.759 108.441 279.478 108.441C279.976 108.441 280.416 108.368 280.798 108.221C281.194 108.074 281.619 107.825 282.074 107.473L283.724 109.805C283.269 110.201 282.785 110.524 282.272 110.773C281.758 111.022 281.23 111.206 280.688 111.323C280.16 111.455 279.632 111.521 279.104 111.521ZM286.428 111.301V99.619H289.772L289.882 101.995L289.178 102.259C289.34 101.731 289.626 101.254 290.036 100.829C290.462 100.389 290.968 100.037 291.554 99.773C292.141 99.509 292.757 99.377 293.402 99.377C294.282 99.377 295.023 99.5603 295.624 99.927C296.226 100.279 296.68 100.814 296.988 101.533C297.296 102.237 297.45 103.102 297.45 104.129V111.301H293.908V104.415C293.908 103.946 293.842 103.557 293.71 103.249C293.578 102.941 293.373 102.714 293.094 102.567C292.83 102.406 292.5 102.332 292.104 102.347C291.796 102.347 291.51 102.398 291.246 102.501C290.982 102.589 290.755 102.728 290.564 102.919C290.374 103.095 290.22 103.3 290.102 103.535C290 103.77 289.948 104.026 289.948 104.305V111.301H288.21C287.8 111.301 287.448 111.301 287.154 111.301C286.861 111.301 286.619 111.301 286.428 111.301ZM301.361 111.301V96.671H304.881V111.301H301.361ZM299.293 102.699V99.619H307.147V102.699H299.293ZM320.518 111.499C319.535 111.499 318.655 111.242 317.878 110.729C317.115 110.201 316.506 109.482 316.052 108.573C315.597 107.649 315.37 106.608 315.37 105.449C315.37 104.261 315.597 103.212 316.052 102.303C316.506 101.394 317.13 100.682 317.922 100.169C318.714 99.641 319.616 99.377 320.628 99.377C321.185 99.377 321.691 99.4577 322.146 99.619C322.615 99.7803 323.026 100.008 323.378 100.301C323.73 100.58 324.03 100.91 324.28 101.291C324.529 101.658 324.712 102.054 324.83 102.479L324.104 102.391V99.619H327.602V111.301H324.038V108.485L324.83 108.463C324.712 108.874 324.522 109.262 324.258 109.629C323.994 109.996 323.671 110.318 323.29 110.597C322.908 110.876 322.483 111.096 322.014 111.257C321.544 111.418 321.046 111.499 320.518 111.499ZM321.486 108.529C322.028 108.529 322.498 108.404 322.894 108.155C323.29 107.906 323.598 107.554 323.818 107.099C324.038 106.63 324.148 106.08 324.148 105.449C324.148 104.818 324.038 104.276 323.818 103.821C323.598 103.352 323.29 102.992 322.894 102.743C322.498 102.479 322.028 102.347 321.486 102.347C320.958 102.347 320.496 102.479 320.1 102.743C319.718 102.992 319.418 103.352 319.198 103.821C318.978 104.276 318.868 104.818 318.868 105.449C318.868 106.08 318.978 106.63 319.198 107.099C319.418 107.554 319.718 107.906 320.1 108.155C320.496 108.404 320.958 108.529 321.486 108.529ZM330.708 111.301V99.619H334.052L334.162 101.995L333.458 102.259C333.619 101.731 333.905 101.254 334.316 100.829C334.741 100.389 335.247 100.037 335.834 99.773C336.42 99.509 337.036 99.377 337.682 99.377C338.562 99.377 339.302 99.5603 339.904 99.927C340.505 100.279 340.96 100.814 341.268 101.533C341.576 102.237 341.73 103.102 341.73 104.129V111.301H338.188V104.415C338.188 103.946 338.122 103.557 337.99 103.249C337.858 102.941 337.652 102.714 337.374 102.567C337.11 102.406 336.78 102.332 336.384 102.347C336.076 102.347 335.79 102.398 335.526 102.501C335.262 102.589 335.034 102.728 334.844 102.919C334.653 103.095 334.499 103.3 334.382 103.535C334.279 103.77 334.228 104.026 334.228 104.305V111.301H332.49C332.079 111.301 331.727 111.301 331.434 111.301C331.14 111.301 330.898 111.301 330.708 111.301ZM349.094 111.543C348.082 111.543 347.18 111.286 346.388 110.773C345.611 110.245 344.995 109.526 344.54 108.617C344.086 107.693 343.858 106.644 343.858 105.471C343.858 104.298 344.086 103.256 344.54 102.347C344.995 101.423 345.618 100.697 346.41 100.169C347.202 99.641 348.112 99.377 349.138 99.377C349.666 99.377 350.172 99.4577 350.656 99.619C351.14 99.7803 351.58 100 351.976 100.279C352.372 100.558 352.695 100.88 352.944 101.247C353.194 101.599 353.34 101.966 353.384 102.347L352.548 102.545V95.021H356.09V111.301H352.812L352.614 108.639L353.318 108.749C353.274 109.116 353.128 109.468 352.878 109.805C352.644 110.142 352.336 110.443 351.954 110.707C351.573 110.956 351.133 111.154 350.634 111.301C350.15 111.462 349.637 111.543 349.094 111.543ZM349.996 108.617C350.539 108.617 351.008 108.485 351.404 108.221C351.8 107.957 352.101 107.59 352.306 107.121C352.526 106.652 352.636 106.102 352.636 105.471C352.636 104.826 352.526 104.268 352.306 103.799C352.101 103.33 351.8 102.963 351.404 102.699C351.008 102.435 350.539 102.303 349.996 102.303C349.454 102.303 348.984 102.435 348.588 102.699C348.207 102.963 347.906 103.33 347.686 103.799C347.466 104.268 347.356 104.826 347.356 105.471C347.356 106.102 347.466 106.652 347.686 107.121C347.906 107.59 348.207 107.957 348.588 108.221C348.984 108.485 349.454 108.617 349.996 108.617ZM371.592 111.521C370.58 111.521 369.663 111.404 368.842 111.169C368.035 110.92 367.316 110.568 366.686 110.113C366.055 109.644 365.49 109.094 364.992 108.463L367.258 105.889C367.991 106.872 368.724 107.532 369.458 107.869C370.206 108.206 370.976 108.375 371.768 108.375C372.164 108.375 372.523 108.324 372.846 108.221C373.168 108.118 373.418 107.972 373.594 107.781C373.77 107.576 373.858 107.326 373.858 107.033C373.858 106.813 373.799 106.615 373.682 106.439C373.579 106.263 373.432 106.109 373.242 105.977C373.051 105.845 372.824 105.728 372.56 105.625C372.296 105.508 372.017 105.412 371.724 105.339C371.43 105.251 371.13 105.178 370.822 105.119C369.971 104.928 369.23 104.694 368.6 104.415C367.969 104.136 367.441 103.799 367.016 103.403C366.605 102.992 366.297 102.53 366.092 102.017C365.886 101.489 365.784 100.902 365.784 100.257C365.784 99.5677 365.938 98.937 366.246 98.365C366.568 97.7783 366.994 97.2797 367.522 96.869C368.064 96.4437 368.688 96.121 369.392 95.901C370.096 95.6663 370.829 95.549 371.592 95.549C372.604 95.549 373.469 95.659 374.188 95.879C374.921 96.0843 375.544 96.385 376.058 96.781C376.586 97.177 377.033 97.6537 377.4 98.211L375.09 100.433C374.782 100.052 374.444 99.7363 374.078 99.487C373.726 99.2377 373.344 99.047 372.934 98.915C372.538 98.783 372.127 98.717 371.702 98.717C371.262 98.717 370.88 98.7757 370.558 98.893C370.25 98.9957 370.008 99.1497 369.832 99.355C369.656 99.5457 369.568 99.7803 369.568 100.059C369.568 100.308 369.641 100.521 369.788 100.697C369.934 100.873 370.132 101.034 370.382 101.181C370.631 101.313 370.917 101.43 371.24 101.533C371.562 101.621 371.9 101.694 372.252 101.753C373.058 101.914 373.784 102.127 374.43 102.391C375.09 102.655 375.654 102.978 376.124 103.359C376.608 103.74 376.974 104.195 377.224 104.723C377.488 105.236 377.62 105.838 377.62 106.527C377.62 107.598 377.356 108.507 376.828 109.255C376.314 109.988 375.603 110.553 374.694 110.949C373.799 111.33 372.765 111.521 371.592 111.521ZM380.057 116.141V99.619H383.401L383.533 102.237L382.873 102.039C382.976 101.555 383.225 101.115 383.621 100.719C384.017 100.323 384.516 100.008 385.117 99.773C385.733 99.5237 386.378 99.399 387.053 99.399C388.05 99.399 388.938 99.663 389.715 100.191C390.492 100.704 391.101 101.416 391.541 102.325C391.996 103.22 392.223 104.261 392.223 105.449C392.223 106.622 391.996 107.664 391.541 108.573C391.101 109.482 390.485 110.201 389.693 110.729C388.916 111.242 388.021 111.499 387.009 111.499C386.349 111.499 385.718 111.374 385.117 111.125C384.516 110.876 384.01 110.538 383.599 110.113C383.188 109.688 382.917 109.226 382.785 108.727L383.599 108.419V116.141H380.057ZM386.151 108.529C386.679 108.529 387.141 108.404 387.537 108.155C387.933 107.891 388.241 107.532 388.461 107.077C388.681 106.622 388.791 106.08 388.791 105.449C388.791 104.833 388.681 104.298 388.461 103.843C388.241 103.374 387.933 103.014 387.537 102.765C387.156 102.501 386.694 102.369 386.151 102.369C385.608 102.369 385.139 102.494 384.743 102.743C384.347 102.992 384.039 103.352 383.819 103.821C383.599 104.29 383.489 104.833 383.489 105.449C383.489 106.08 383.599 106.622 383.819 107.077C384.039 107.532 384.347 107.891 384.743 108.155C385.139 108.404 385.608 108.529 386.151 108.529ZM400.059 111.521C398.842 111.521 397.756 111.257 396.803 110.729C395.864 110.201 395.116 109.482 394.559 108.573C394.016 107.664 393.745 106.622 393.745 105.449C393.745 104.276 394.016 103.234 394.559 102.325C395.116 101.416 395.864 100.697 396.803 100.169C397.756 99.641 398.842 99.377 400.059 99.377C401.276 99.377 402.354 99.641 403.293 100.169C404.246 100.697 404.994 101.416 405.537 102.325C406.08 103.234 406.351 104.276 406.351 105.449C406.351 106.622 406.08 107.664 405.537 108.573C404.994 109.482 404.246 110.201 403.293 110.729C402.354 111.257 401.276 111.521 400.059 111.521ZM400.059 108.485C400.587 108.485 401.056 108.353 401.467 108.089C401.878 107.825 402.2 107.466 402.435 107.011C402.67 106.556 402.78 106.036 402.765 105.449C402.78 104.862 402.67 104.342 402.435 103.887C402.2 103.418 401.878 103.051 401.467 102.787C401.056 102.523 400.587 102.391 400.059 102.391C399.531 102.391 399.054 102.523 398.629 102.787C398.218 103.051 397.896 103.418 397.661 103.887C397.426 104.342 397.316 104.862 397.331 105.449C397.316 106.036 397.426 106.556 397.661 107.011C397.896 107.466 398.218 107.825 398.629 108.089C399.054 108.353 399.531 108.485 400.059 108.485ZM408.653 111.301V99.619H411.997L412.107 101.995L411.403 102.259C411.564 101.731 411.85 101.254 412.261 100.829C412.686 100.389 413.192 100.037 413.779 99.773C414.365 99.509 414.981 99.377 415.627 99.377C416.507 99.377 417.247 99.5603 417.849 99.927C418.45 100.279 418.905 100.814 419.213 101.533C419.521 102.237 419.675 103.102 419.675 104.129V111.301H416.133V104.415C416.133 103.946 416.067 103.557 415.935 103.249C415.803 102.941 415.597 102.714 415.319 102.567C415.055 102.406 414.725 102.332 414.329 102.347C414.021 102.347 413.735 102.398 413.471 102.501C413.207 102.589 412.979 102.728 412.789 102.919C412.598 103.095 412.444 103.3 412.327 103.535C412.224 103.77 412.173 104.026 412.173 104.305V111.301H410.435C410.024 111.301 409.672 111.301 409.379 111.301C409.085 111.301 408.843 111.301 408.653 111.301ZM426.556 111.521C425.412 111.521 424.4 111.338 423.52 110.971C422.654 110.604 421.965 110.113 421.452 109.497L423.586 107.649C424.04 108.104 424.554 108.441 425.126 108.661C425.698 108.866 426.24 108.969 426.754 108.969C426.959 108.969 427.142 108.947 427.304 108.903C427.465 108.859 427.597 108.8 427.7 108.727C427.817 108.639 427.905 108.544 427.964 108.441C428.022 108.324 428.052 108.192 428.052 108.045C428.052 107.752 427.92 107.524 427.656 107.363C427.524 107.29 427.304 107.202 426.996 107.099C426.688 106.996 426.292 106.879 425.808 106.747C425.118 106.571 424.517 106.366 424.004 106.131C423.505 105.882 423.094 105.596 422.772 105.273C422.478 104.965 422.251 104.628 422.09 104.261C421.928 103.88 421.848 103.454 421.848 102.985C421.848 102.442 421.972 101.951 422.222 101.511C422.486 101.071 422.83 100.69 423.256 100.367C423.696 100.044 424.194 99.8023 424.752 99.641C425.324 99.465 425.91 99.377 426.512 99.377C427.157 99.377 427.773 99.4503 428.36 99.597C428.946 99.7437 429.489 99.949 429.988 100.213C430.501 100.477 430.956 100.792 431.352 101.159L429.504 103.227C429.24 102.978 428.939 102.758 428.602 102.567C428.279 102.362 427.942 102.2 427.59 102.083C427.238 101.966 426.915 101.907 426.622 101.907C426.402 101.907 426.204 101.929 426.028 101.973C425.866 102.002 425.727 102.061 425.61 102.149C425.492 102.222 425.404 102.318 425.346 102.435C425.287 102.538 425.258 102.662 425.258 102.809C425.258 102.956 425.294 103.095 425.368 103.227C425.456 103.359 425.573 103.469 425.72 103.557C425.866 103.645 426.101 103.748 426.424 103.865C426.746 103.968 427.186 104.1 427.744 104.261C428.433 104.452 429.027 104.664 429.526 104.899C430.024 105.134 430.42 105.412 430.714 105.735C430.948 105.984 431.124 106.278 431.242 106.615C431.359 106.938 431.418 107.29 431.418 107.671C431.418 108.419 431.205 109.086 430.78 109.673C430.369 110.245 429.797 110.7 429.064 111.037C428.33 111.36 427.494 111.521 426.556 111.521ZM439.01 111.521C437.793 111.521 436.708 111.257 435.754 110.729C434.816 110.201 434.068 109.482 433.51 108.573C432.968 107.664 432.696 106.622 432.696 105.449C432.696 104.276 432.968 103.234 433.51 102.325C434.068 101.416 434.816 100.697 435.754 100.169C436.708 99.641 437.793 99.377 439.01 99.377C440.228 99.377 441.306 99.641 442.244 100.169C443.198 100.697 443.946 101.416 444.488 102.325C445.031 103.234 445.302 104.276 445.302 105.449C445.302 106.622 445.031 107.664 444.488 108.573C443.946 109.482 443.198 110.201 442.244 110.729C441.306 111.257 440.228 111.521 439.01 111.521ZM439.01 108.485C439.538 108.485 440.008 108.353 440.418 108.089C440.829 107.825 441.152 107.466 441.386 107.011C441.621 106.556 441.731 106.036 441.716 105.449C441.731 104.862 441.621 104.342 441.386 103.887C441.152 103.418 440.829 103.051 440.418 102.787C440.008 102.523 439.538 102.391 439.01 102.391C438.482 102.391 438.006 102.523 437.58 102.787C437.17 103.051 436.847 103.418 436.612 103.887C436.378 104.342 436.268 104.862 436.282 105.449C436.268 106.036 436.378 106.556 436.612 107.011C436.847 107.466 437.17 107.825 437.58 108.089C438.006 108.353 438.482 108.485 439.01 108.485ZM447.604 111.301V99.619H450.948L451.102 103.425L450.442 102.699C450.618 102.068 450.904 101.504 451.3 101.005C451.711 100.506 452.187 100.11 452.73 99.817C453.273 99.5237 453.852 99.377 454.468 99.377C454.732 99.377 454.974 99.399 455.194 99.443C455.429 99.487 455.641 99.5383 455.832 99.597L454.864 103.491C454.703 103.388 454.483 103.308 454.204 103.249C453.94 103.176 453.661 103.139 453.368 103.139C453.045 103.139 452.745 103.198 452.466 103.315C452.187 103.418 451.953 103.572 451.762 103.777C451.571 103.982 451.417 104.224 451.3 104.503C451.197 104.782 451.146 105.097 451.146 105.449V111.301H447.604ZM461.554 111.521C460.41 111.521 459.398 111.338 458.518 110.971C457.652 110.604 456.963 110.113 456.45 109.497L458.584 107.649C459.038 108.104 459.552 108.441 460.124 108.661C460.696 108.866 461.238 108.969 461.752 108.969C461.957 108.969 462.14 108.947 462.302 108.903C462.463 108.859 462.595 108.8 462.698 108.727C462.815 108.639 462.903 108.544 462.962 108.441C463.02 108.324 463.05 108.192 463.05 108.045C463.05 107.752 462.918 107.524 462.654 107.363C462.522 107.29 462.302 107.202 461.994 107.099C461.686 106.996 461.29 106.879 460.806 106.747C460.116 106.571 459.515 106.366 459.002 106.131C458.503 105.882 458.092 105.596 457.77 105.273C457.476 104.965 457.249 104.628 457.088 104.261C456.926 103.88 456.846 103.454 456.846 102.985C456.846 102.442 456.97 101.951 457.22 101.511C457.484 101.071 457.828 100.69 458.254 100.367C458.694 100.044 459.192 99.8023 459.75 99.641C460.322 99.465 460.908 99.377 461.51 99.377C462.155 99.377 462.771 99.4503 463.358 99.597C463.944 99.7437 464.487 99.949 464.986 100.213C465.499 100.477 465.954 100.792 466.35 101.159L464.502 103.227C464.238 102.978 463.937 102.758 463.6 102.567C463.277 102.362 462.94 102.2 462.588 102.083C462.236 101.966 461.913 101.907 461.62 101.907C461.4 101.907 461.202 101.929 461.026 101.973C460.864 102.002 460.725 102.061 460.608 102.149C460.49 102.222 460.402 102.318 460.344 102.435C460.285 102.538 460.256 102.662 460.256 102.809C460.256 102.956 460.292 103.095 460.366 103.227C460.454 103.359 460.571 103.469 460.718 103.557C460.864 103.645 461.099 103.748 461.422 103.865C461.744 103.968 462.184 104.1 462.742 104.261C463.431 104.452 464.025 104.664 464.524 104.899C465.022 105.134 465.418 105.412 465.712 105.735C465.946 105.984 466.122 106.278 466.24 106.615C466.357 106.938 466.416 107.29 466.416 107.671C466.416 108.419 466.203 109.086 465.778 109.673C465.367 110.245 464.795 110.7 464.062 111.037C463.328 111.36 462.492 111.521 461.554 111.521ZM468.508 111.301V95.021H471.962V101.995L471.258 102.259C471.42 101.731 471.706 101.254 472.116 100.829C472.542 100.389 473.048 100.037 473.634 99.773C474.221 99.509 474.837 99.377 475.482 99.377C476.362 99.377 477.103 99.5603 477.704 99.927C478.306 100.279 478.76 100.814 479.068 101.533C479.376 102.237 479.53 103.102 479.53 104.129V111.301H475.988V104.415C475.988 103.946 475.922 103.557 475.79 103.249C475.658 102.941 475.453 102.714 475.174 102.567C474.91 102.406 474.58 102.332 474.184 102.347C473.876 102.347 473.59 102.398 473.326 102.501C473.062 102.589 472.835 102.728 472.644 102.919C472.454 103.095 472.3 103.3 472.182 103.535C472.08 103.77 472.028 104.026 472.028 104.305V111.301H470.29C469.88 111.301 469.528 111.301 469.234 111.301C468.941 111.301 468.699 111.301 468.508 111.301ZM482.671 111.301V99.619H486.191V111.301H482.671ZM484.431 97.309C483.771 97.309 483.25 97.155 482.869 96.847C482.502 96.5243 482.319 96.0697 482.319 95.483C482.319 94.955 482.51 94.5223 482.891 94.185C483.272 93.8477 483.786 93.679 484.431 93.679C485.091 93.679 485.604 93.8403 485.971 94.163C486.338 94.471 486.521 94.911 486.521 95.483C486.521 96.0257 486.33 96.4657 485.949 96.803C485.582 97.1403 485.076 97.309 484.431 97.309ZM489.499 116.141V99.619H492.843L492.975 102.237L492.315 102.039C492.417 101.555 492.667 101.115 493.063 100.719C493.459 100.323 493.957 100.008 494.559 99.773C495.175 99.5237 495.82 99.399 496.495 99.399C497.492 99.399 498.379 99.663 499.157 100.191C499.934 100.704 500.543 101.416 500.983 102.325C501.437 103.22 501.665 104.261 501.665 105.449C501.665 106.622 501.437 107.664 500.983 108.573C500.543 109.482 499.927 110.201 499.135 110.729C498.357 111.242 497.463 111.499 496.451 111.499C495.791 111.499 495.16 111.374 494.559 111.125C493.957 110.876 493.451 110.538 493.041 110.113C492.63 109.688 492.359 109.226 492.227 108.727L493.041 108.419V116.141H489.499ZM495.593 108.529C496.121 108.529 496.583 108.404 496.979 108.155C497.375 107.891 497.683 107.532 497.903 107.077C498.123 106.622 498.233 106.08 498.233 105.449C498.233 104.833 498.123 104.298 497.903 103.843C497.683 103.374 497.375 103.014 496.979 102.765C496.597 102.501 496.135 102.369 495.593 102.369C495.05 102.369 494.581 102.494 494.185 102.743C493.789 102.992 493.481 103.352 493.261 103.821C493.041 104.29 492.931 104.833 492.931 105.449C492.931 106.08 493.041 106.622 493.261 107.077C493.481 107.532 493.789 107.891 494.185 108.155C494.581 108.404 495.05 108.529 495.593 108.529ZM518.417 111.521C517.259 111.521 516.188 111.33 515.205 110.949C514.237 110.553 513.394 110.003 512.675 109.299C511.957 108.58 511.399 107.737 511.003 106.769C510.622 105.786 510.431 104.708 510.431 103.535C510.431 102.391 510.637 101.335 511.047 100.367C511.458 99.399 512.023 98.563 512.741 97.859C513.475 97.1403 514.333 96.583 515.315 96.187C516.313 95.791 517.398 95.593 518.571 95.593C519.305 95.593 520.023 95.6883 520.727 95.879C521.431 96.0697 522.084 96.3557 522.685 96.737C523.301 97.1037 523.829 97.5437 524.269 98.057L521.981 100.675C521.673 100.352 521.343 100.074 520.991 99.839C520.654 99.5897 520.28 99.399 519.869 99.267C519.459 99.135 519.019 99.069 518.549 99.069C517.963 99.069 517.405 99.179 516.877 99.399C516.364 99.6043 515.909 99.905 515.513 100.301C515.132 100.682 514.831 101.152 514.611 101.709C514.391 102.266 514.281 102.89 514.281 103.579C514.281 104.254 514.391 104.87 514.611 105.427C514.831 105.97 515.139 106.439 515.535 106.835C515.931 107.231 516.408 107.532 516.965 107.737C517.537 107.942 518.168 108.045 518.857 108.045C519.327 108.045 519.774 107.979 520.199 107.847C520.625 107.715 521.013 107.539 521.365 107.319C521.732 107.084 522.055 106.82 522.333 106.527L524.137 109.387C523.771 109.798 523.279 110.164 522.663 110.487C522.062 110.81 521.387 111.066 520.639 111.257C519.906 111.433 519.165 111.521 518.417 111.521ZM531.823 111.521C530.605 111.521 529.52 111.257 528.567 110.729C527.628 110.201 526.88 109.482 526.323 108.573C525.78 107.664 525.509 106.622 525.509 105.449C525.509 104.276 525.78 103.234 526.323 102.325C526.88 101.416 527.628 100.697 528.567 100.169C529.52 99.641 530.605 99.377 531.823 99.377C533.04 99.377 534.118 99.641 535.057 100.169C536.01 100.697 536.758 101.416 537.301 102.325C537.843 103.234 538.115 104.276 538.115 105.449C538.115 106.622 537.843 107.664 537.301 108.573C536.758 109.482 536.01 110.201 535.057 110.729C534.118 111.257 533.04 111.521 531.823 111.521ZM531.823 108.485C532.351 108.485 532.82 108.353 533.231 108.089C533.641 107.825 533.964 107.466 534.199 107.011C534.433 106.556 534.543 106.036 534.529 105.449C534.543 104.862 534.433 104.342 534.199 103.887C533.964 103.418 533.641 103.051 533.231 102.787C532.82 102.523 532.351 102.391 531.823 102.391C531.295 102.391 530.818 102.523 530.393 102.787C529.982 103.051 529.659 103.418 529.425 103.887C529.19 104.342 529.08 104.862 529.095 105.449C529.08 106.036 529.19 106.556 529.425 107.011C529.659 107.466 529.982 107.825 530.393 108.089C530.818 108.353 531.295 108.485 531.823 108.485ZM545.916 111.521C544.699 111.521 543.614 111.257 542.66 110.729C541.722 110.201 540.974 109.482 540.416 108.573C539.874 107.664 539.602 106.622 539.602 105.449C539.602 104.276 539.874 103.234 540.416 102.325C540.974 101.416 541.722 100.697 542.66 100.169C543.614 99.641 544.699 99.377 545.916 99.377C547.134 99.377 548.212 99.641 549.15 100.169C550.104 100.697 550.852 101.416 551.394 102.325C551.937 103.234 552.208 104.276 552.208 105.449C552.208 106.622 551.937 107.664 551.394 108.573C550.852 109.482 550.104 110.201 549.15 110.729C548.212 111.257 547.134 111.521 545.916 111.521ZM545.916 108.485C546.444 108.485 546.914 108.353 547.324 108.089C547.735 107.825 548.058 107.466 548.292 107.011C548.527 106.556 548.637 106.036 548.622 105.449C548.637 104.862 548.527 104.342 548.292 103.887C548.058 103.418 547.735 103.051 547.324 102.787C546.914 102.523 546.444 102.391 545.916 102.391C545.388 102.391 544.912 102.523 544.486 102.787C544.076 103.051 543.753 103.418 543.518 103.887C543.284 104.342 543.174 104.862 543.188 105.449C543.174 106.036 543.284 106.556 543.518 107.011C543.753 107.466 544.076 107.825 544.486 108.089C544.912 108.353 545.388 108.485 545.916 108.485ZM554.51 111.301V99.619H557.854L558.008 103.425L557.348 102.699C557.524 102.068 557.81 101.504 558.206 101.005C558.617 100.506 559.094 100.11 559.636 99.817C560.179 99.5237 560.758 99.377 561.374 99.377C561.638 99.377 561.88 99.399 562.1 99.443C562.335 99.487 562.548 99.5383 562.738 99.597L561.77 103.491C561.609 103.388 561.389 103.308 561.11 103.249C560.846 103.176 560.568 103.139 560.274 103.139C559.952 103.139 559.651 103.198 559.372 103.315C559.094 103.418 558.859 103.572 558.668 103.777C558.478 103.982 558.324 104.224 558.206 104.503C558.104 104.782 558.052 105.097 558.052 105.449V111.301H554.51ZM568.45 111.543C567.438 111.543 566.536 111.286 565.744 110.773C564.966 110.245 564.35 109.526 563.896 108.617C563.441 107.693 563.214 106.644 563.214 105.471C563.214 104.298 563.441 103.256 563.896 102.347C564.35 101.423 564.974 100.697 565.766 100.169C566.558 99.641 567.467 99.377 568.494 99.377C569.022 99.377 569.528 99.4577 570.012 99.619C570.496 99.7803 570.936 100 571.332 100.279C571.728 100.558 572.05 100.88 572.3 101.247C572.549 101.599 572.696 101.966 572.74 102.347L571.904 102.545V95.021H575.446V111.301H572.168L571.97 108.639L572.674 108.749C572.63 109.116 572.483 109.468 572.234 109.805C571.999 110.142 571.691 110.443 571.31 110.707C570.928 110.956 570.488 111.154 569.99 111.301C569.506 111.462 568.992 111.543 568.45 111.543ZM569.352 108.617C569.894 108.617 570.364 108.485 570.76 108.221C571.156 107.957 571.456 107.59 571.662 107.121C571.882 106.652 571.992 106.102 571.992 105.471C571.992 104.826 571.882 104.268 571.662 103.799C571.456 103.33 571.156 102.963 570.76 102.699C570.364 102.435 569.894 102.303 569.352 102.303C568.809 102.303 568.34 102.435 567.944 102.699C567.562 102.963 567.262 103.33 567.042 103.799C566.822 104.268 566.712 104.826 566.712 105.471C566.712 106.102 566.822 106.652 567.042 107.121C567.262 107.59 567.562 107.957 567.944 108.221C568.34 108.485 568.809 108.617 569.352 108.617ZM578.62 111.301V99.619H582.14V111.301H578.62ZM580.38 97.309C579.72 97.309 579.2 97.155 578.818 96.847C578.452 96.5243 578.268 96.0697 578.268 95.483C578.268 94.955 578.459 94.5223 578.84 94.185C579.222 93.8477 579.735 93.679 580.38 93.679C581.04 93.679 581.554 93.8403 581.92 94.163C582.287 94.471 582.47 94.911 582.47 95.483C582.47 96.0257 582.28 96.4657 581.898 96.803C581.532 97.1403 581.026 97.309 580.38 97.309ZM585.448 111.301V99.619H588.792L588.902 101.995L588.198 102.259C588.359 101.731 588.645 101.254 589.056 100.829C589.481 100.389 589.987 100.037 590.574 99.773C591.16 99.509 591.776 99.377 592.422 99.377C593.302 99.377 594.042 99.5603 594.644 99.927C595.245 100.279 595.7 100.814 596.008 101.533C596.316 102.237 596.47 103.102 596.47 104.129V111.301H592.928V104.415C592.928 103.946 592.862 103.557 592.73 103.249C592.598 102.941 592.392 102.714 592.114 102.567C591.85 102.406 591.52 102.332 591.124 102.347C590.816 102.347 590.53 102.398 590.266 102.501C590.002 102.589 589.774 102.728 589.584 102.919C589.393 103.095 589.239 103.3 589.122 103.535C589.019 103.77 588.968 104.026 588.968 104.305V111.301H587.23C586.819 111.301 586.467 111.301 586.174 111.301C585.88 111.301 585.638 111.301 585.448 111.301ZM603.725 111.499C602.742 111.499 601.862 111.242 601.085 110.729C600.322 110.201 599.713 109.482 599.259 108.573C598.804 107.649 598.577 106.608 598.577 105.449C598.577 104.261 598.804 103.212 599.259 102.303C599.713 101.394 600.337 100.682 601.129 100.169C601.921 99.641 602.823 99.377 603.835 99.377C604.392 99.377 604.898 99.4577 605.353 99.619C605.822 99.7803 606.233 100.008 606.585 100.301C606.937 100.58 607.237 100.91 607.487 101.291C607.736 101.658 607.919 102.054 608.037 102.479L607.311 102.391V99.619H610.809V111.301H607.245V108.485L608.037 108.463C607.919 108.874 607.729 109.262 607.465 109.629C607.201 109.996 606.878 110.318 606.497 110.597C606.115 110.876 605.69 111.096 605.221 111.257C604.751 111.418 604.253 111.499 603.725 111.499ZM604.693 108.529C605.235 108.529 605.705 108.404 606.101 108.155C606.497 107.906 606.805 107.554 607.025 107.099C607.245 106.63 607.355 106.08 607.355 105.449C607.355 104.818 607.245 104.276 607.025 103.821C606.805 103.352 606.497 102.992 606.101 102.743C605.705 102.479 605.235 102.347 604.693 102.347C604.165 102.347 603.703 102.479 603.307 102.743C602.925 102.992 602.625 103.352 602.405 103.821C602.185 104.276 602.075 104.818 602.075 105.449C602.075 106.08 602.185 106.63 602.405 107.099C602.625 107.554 602.925 107.906 603.307 108.155C603.703 108.404 604.165 108.529 604.693 108.529ZM614.883 111.301V96.671H618.403V111.301H614.883ZM612.815 102.699V99.619H620.669V102.699H612.815ZM622.878 111.301V99.619H626.398V111.301H622.878ZM624.638 97.309C623.978 97.309 623.457 97.155 623.076 96.847C622.709 96.5243 622.526 96.0697 622.526 95.483C622.526 94.955 622.717 94.5223 623.098 94.185C623.479 93.8477 623.993 93.679 624.638 93.679C625.298 93.679 625.811 93.8403 626.178 94.163C626.545 94.471 626.728 94.911 626.728 95.483C626.728 96.0257 626.537 96.4657 626.156 96.803C625.789 97.1403 625.283 97.309 624.638 97.309ZM635.206 111.521C633.988 111.521 632.903 111.257 631.95 110.729C631.011 110.201 630.263 109.482 629.706 108.573C629.163 107.664 628.892 106.622 628.892 105.449C628.892 104.276 629.163 103.234 629.706 102.325C630.263 101.416 631.011 100.697 631.95 100.169C632.903 99.641 633.988 99.377 635.206 99.377C636.423 99.377 637.501 99.641 638.44 100.169C639.393 100.697 640.141 101.416 640.684 102.325C641.226 103.234 641.498 104.276 641.498 105.449C641.498 106.622 641.226 107.664 640.684 108.573C640.141 109.482 639.393 110.201 638.44 110.729C637.501 111.257 636.423 111.521 635.206 111.521ZM635.206 108.485C635.734 108.485 636.203 108.353 636.614 108.089C637.024 107.825 637.347 107.466 637.582 107.011C637.816 106.556 637.926 106.036 637.912 105.449C637.926 104.862 637.816 104.342 637.582 103.887C637.347 103.418 637.024 103.051 636.614 102.787C636.203 102.523 635.734 102.391 635.206 102.391C634.678 102.391 634.201 102.523 633.776 102.787C633.365 103.051 633.042 103.418 632.808 103.887C632.573 104.342 632.463 104.862 632.478 105.449C632.463 106.036 632.573 106.556 632.808 107.011C633.042 107.466 633.365 107.825 633.776 108.089C634.201 108.353 634.678 108.485 635.206 108.485ZM643.799 111.301V99.619H647.143L647.253 101.995L646.549 102.259C646.711 101.731 646.997 101.254 647.407 100.829C647.833 100.389 648.339 100.037 648.925 99.773C649.512 99.509 650.128 99.377 650.773 99.377C651.653 99.377 652.394 99.5603 652.995 99.927C653.597 100.279 654.051 100.814 654.359 101.533C654.667 102.237 654.821 103.102 654.821 104.129V111.301H651.279V104.415C651.279 103.946 651.213 103.557 651.081 103.249C650.949 102.941 650.744 102.714 650.465 102.567C650.201 102.406 649.871 102.332 649.475 102.347C649.167 102.347 648.881 102.398 648.617 102.501C648.353 102.589 648.126 102.728 647.935 102.919C647.745 103.095 647.591 103.3 647.473 103.535C647.371 103.77 647.319 104.026 647.319 104.305V111.301H645.581C645.171 111.301 644.819 111.301 644.525 111.301C644.232 111.301 643.99 111.301 643.799 111.301ZM665.185 111.301V95.901H671.829C672.797 95.901 673.655 96.121 674.403 96.561C675.166 97.001 675.767 97.6023 676.207 98.365C676.662 99.1277 676.889 99.9857 676.889 100.939C676.889 101.936 676.662 102.831 676.207 103.623C675.767 104.4 675.166 105.016 674.403 105.471C673.655 105.926 672.797 106.153 671.829 106.153H668.925V111.301H665.185ZM668.859 102.875H671.301C671.624 102.875 671.917 102.794 672.181 102.633C672.445 102.472 672.658 102.252 672.819 101.973C672.98 101.694 673.061 101.372 673.061 101.005C673.061 100.624 672.98 100.301 672.819 100.037C672.658 99.773 672.445 99.5677 672.181 99.421C671.917 99.2743 671.624 99.201 671.301 99.201H668.859V102.875ZM679.399 111.301V95.021H682.919V111.301H679.399ZM690.156 111.499C689.174 111.499 688.294 111.242 687.516 110.729C686.754 110.201 686.145 109.482 685.69 108.573C685.236 107.649 685.008 106.608 685.008 105.449C685.008 104.261 685.236 103.212 685.69 102.303C686.145 101.394 686.768 100.682 687.56 100.169C688.352 99.641 689.254 99.377 690.266 99.377C690.824 99.377 691.33 99.4577 691.784 99.619C692.254 99.7803 692.664 100.008 693.016 100.301C693.368 100.58 693.669 100.91 693.918 101.291C694.168 101.658 694.351 102.054 694.468 102.479L693.742 102.391V99.619H697.24V111.301H693.676V108.485L694.468 108.463C694.351 108.874 694.16 109.262 693.896 109.629C693.632 109.996 693.31 110.318 692.928 110.597C692.547 110.876 692.122 111.096 691.652 111.257C691.183 111.418 690.684 111.499 690.156 111.499ZM691.124 108.529C691.667 108.529 692.136 108.404 692.532 108.155C692.928 107.906 693.236 107.554 693.456 107.099C693.676 106.63 693.786 106.08 693.786 105.449C693.786 104.818 693.676 104.276 693.456 103.821C693.236 103.352 692.928 102.992 692.532 102.743C692.136 102.479 691.667 102.347 691.124 102.347C690.596 102.347 690.134 102.479 689.738 102.743C689.357 102.992 689.056 103.352 688.836 103.821C688.616 104.276 688.506 104.818 688.506 105.449C688.506 106.08 688.616 106.63 688.836 107.099C689.056 107.554 689.357 107.906 689.738 108.155C690.134 108.404 690.596 108.529 691.124 108.529ZM701.314 111.301V96.671H704.834V111.301H701.314ZM699.246 102.699V99.619H707.1V102.699H699.246ZM709.279 111.301V99.047C709.279 98.2843 709.441 97.595 709.763 96.979C710.101 96.363 710.563 95.879 711.149 95.527C711.751 95.1603 712.447 94.977 713.239 94.977C713.797 94.977 714.31 95.0577 714.779 95.219C715.249 95.3803 715.667 95.6077 716.033 95.901L715.021 98.475C714.831 98.3723 714.647 98.2917 714.471 98.233C714.295 98.1743 714.134 98.145 713.987 98.145C713.723 98.145 713.503 98.189 713.327 98.277C713.151 98.365 713.019 98.5043 712.931 98.695C712.858 98.871 712.821 99.091 712.821 99.355V111.301H711.061C710.665 111.301 710.313 111.301 710.005 111.301C709.712 111.301 709.47 111.301 709.279 111.301ZM707.585 102.853V99.949H715.219V102.853H707.585ZM722.26 111.521C721.043 111.521 719.958 111.257 719.004 110.729C718.066 110.201 717.318 109.482 716.76 108.573C716.218 107.664 715.946 106.622 715.946 105.449C715.946 104.276 716.218 103.234 716.76 102.325C717.318 101.416 718.066 100.697 719.004 100.169C719.958 99.641 721.043 99.377 722.26 99.377C723.478 99.377 724.556 99.641 725.494 100.169C726.448 100.697 727.196 101.416 727.738 102.325C728.281 103.234 728.552 104.276 728.552 105.449C728.552 106.622 728.281 107.664 727.738 108.573C727.196 109.482 726.448 110.201 725.494 110.729C724.556 111.257 723.478 111.521 722.26 111.521ZM722.26 108.485C722.788 108.485 723.258 108.353 723.668 108.089C724.079 107.825 724.402 107.466 724.636 107.011C724.871 106.556 724.981 106.036 724.966 105.449C724.981 104.862 724.871 104.342 724.636 103.887C724.402 103.418 724.079 103.051 723.668 102.787C723.258 102.523 722.788 102.391 722.26 102.391C721.732 102.391 721.256 102.523 720.83 102.787C720.42 103.051 720.097 103.418 719.862 103.887C719.628 104.342 719.518 104.862 719.532 105.449C719.518 106.036 719.628 106.556 719.862 107.011C720.097 107.466 720.42 107.825 720.83 108.089C721.256 108.353 721.732 108.485 722.26 108.485ZM730.854 111.301V99.619H734.198L734.352 103.425L733.692 102.699C733.868 102.068 734.154 101.504 734.55 101.005C734.961 100.506 735.437 100.11 735.98 99.817C736.523 99.5237 737.102 99.377 737.718 99.377C737.982 99.377 738.224 99.399 738.444 99.443C738.679 99.487 738.891 99.5383 739.082 99.597L738.114 103.491C737.953 103.388 737.733 103.308 737.454 103.249C737.19 103.176 736.911 103.139 736.618 103.139C736.295 103.139 735.995 103.198 735.716 103.315C735.437 103.418 735.203 103.572 735.012 103.777C734.821 103.982 734.667 104.224 734.55 104.503C734.447 104.782 734.396 105.097 734.396 105.449V111.301H730.854ZM740.844 111.301V99.619H744.188L744.298 101.731L743.836 101.753C744.012 101.372 744.232 101.034 744.496 100.741C744.774 100.448 745.082 100.206 745.42 100.015C745.772 99.8097 746.131 99.6557 746.498 99.553C746.879 99.4503 747.26 99.399 747.642 99.399C748.214 99.399 748.734 99.487 749.204 99.663C749.673 99.839 750.084 100.125 750.436 100.521C750.788 100.902 751.066 101.423 751.272 102.083L750.722 102.039L750.898 101.687C751.088 101.335 751.33 101.02 751.624 100.741C751.932 100.448 752.269 100.206 752.636 100.015C753.002 99.8097 753.384 99.6557 753.78 99.553C754.176 99.4503 754.557 99.399 754.924 99.399C755.848 99.399 756.618 99.5823 757.234 99.949C757.85 100.301 758.312 100.836 758.62 101.555C758.942 102.274 759.104 103.146 759.104 104.173V111.301H755.562V104.459C755.562 103.99 755.496 103.601 755.364 103.293C755.232 102.985 755.034 102.758 754.77 102.611C754.52 102.45 754.205 102.369 753.824 102.369C753.516 102.369 753.23 102.42 752.966 102.523C752.716 102.626 752.496 102.765 752.306 102.941C752.13 103.117 751.99 103.322 751.888 103.557C751.785 103.792 751.734 104.056 751.734 104.349V111.301H748.192V104.437C748.192 103.997 748.126 103.623 747.994 103.315C747.862 103.007 747.664 102.772 747.4 102.611C747.136 102.45 746.828 102.369 746.476 102.369C746.168 102.369 745.882 102.42 745.618 102.523C745.368 102.626 745.148 102.765 744.958 102.941C744.782 103.117 744.642 103.322 744.54 103.557C744.437 103.792 744.386 104.048 744.386 104.327V111.301H740.844Z" fill="#3849E4"/>
</svg>
